<svg id="Capa_1" data-name="Capa 1" xmlns="http://www.w3.org/2000/svg" viewBox="0 0 350 350"><path d="M175,2.54A172.37,172.37,0,0,1,347.5,175.24c0,95.28-77.35,172.26-173,172.22-95.35,0-172.07-77.56-172-173.79C2.58,79.56,80.21,2.54,175,2.54ZM190.05,263v-9.54c0-21.2-.17-42.4.12-63.59.17-12.17,9.58-22,21-22.75,12.34-.85,19.88,5.48,22.35,19a57.58,57.58,0,0,1,.8,10.17c.07,20.3,0,40.6.05,60.89,0,1.9.16,3.8.24,5.64h41.31a20.59,20.59,0,0,0,.35-2.5c0-25.33.35-50.67-.3-76-.2-7.71-2.35-15.68-5.1-23-12.79-33.79-60.68-35.13-77.29-11.39A45.32,45.32,0,0,1,190,153.8V137.52h-41.5V263ZM83.28,263h41.26V137.43H83.28ZM104.06,76c-13.78,0-23.65,9.22-23.59,21.92.07,12.51,9.87,21.72,23.21,21.79,13.66.08,23.85-9.19,23.86-21.71C127.55,85.17,117.7,75.94,104.06,76Z"/></svg>