<svg id="Capa_1" data-name="Capa 1" xmlns="http://www.w3.org/2000/svg" viewBox="0 0 350 350"><path d="M175.37,2.55c95.16,0,172.18,77.53,172.13,173.22-.05,94.89-77.82,171.77-173.68,171.68-94.71-.08-171.42-78-171.32-174C2.6,79.55,80.53,2.52,175.37,2.55Zm-.11,94.09q-43.65,0-87.3,0c-15.44,0-24,8.59-24,24.08q0,54.13,0,108.29c0,15.81,8.48,24.33,24.26,24.33q86.78,0,173.54,0c15.77,0,24.23-8.52,24.24-24.35q0-53.88,0-107.76c0-16.18-8.38-24.58-24.53-24.6Q218.37,96.61,175.26,96.64Z"/><path d="M268,123.82c.15,2.83.32,4.58.32,6.33q0,48.49,0,97c0,8.2-.21,8.39-8.5,8.39q-85.41,0-170.82,0c-6.64,0-7.3-.56-7.31-6.87q-.06-49.83,0-99.66c0-1.39.23-2.77.45-5.08,2.38,1.82,4.19,3.16,5.94,4.55q39.24,31.16,78.48,62.3c7.28,5.78,9.63,5.78,16.95,0q39-31,78.05-62C263.38,127.33,265.23,126,268,123.82Z"/><path d="M100.22,114.83H250.51c-9.46,7.55-17.94,14.34-26.44,21.1Q201.51,153.84,179,171.75c-2.2,1.75-3.89,3.26-6.91.84-23.38-18.75-46.89-37.34-70.35-56A15.31,15.31,0,0,1,100.22,114.83Z"/></svg>