<svg id="Capa_1" data-name="Capa 1" xmlns="http://www.w3.org/2000/svg" viewBox="0 0 350 350"><path d="M175.26,2.54c95.6,0,172.32,77.08,172.24,173-.08,95.45-77.3,172-173.3,171.93C78.87,347.34,2.36,270,2.5,173.91,2.64,79.18,79.93,2.5,175.26,2.54ZM59.61,102v7.41q0,62.61,0,125.24a23.09,23.09,0,0,1,0,2.76c-.46,3.85,1.2,5,5,5,16.55-.17,33.11,0,49.66-.12a237.63,237.63,0,0,0,24.76-1.1c28.73-3.32,44.93-26.9,37-53.4-2.91-9.76-9.42-16.3-19.1-20.45a19.36,19.36,0,0,1,2.51-2.13c19.62-10.53,20.37-46.6-4.63-57.32a75.47,75.47,0,0,0-25-5.62c-15.21-.89-30.52-.26-45.79-.27ZM290,199.46a77.64,77.64,0,0,0-4.57-31.23c-6.61-18-19.12-28.92-38.6-30.78-21.56-2.06-39.13,4.89-49.48,24.66-10.26,19.6-10,40.07-1.38,60.23,5.87,13.68,16.89,21.66,31.38,24.3a74.07,74.07,0,0,0,19.2,1.08c14-1.17,26.52-6.09,35.87-17.14A25.13,25.13,0,0,0,288.82,214c-8.53,0-16.59-.12-24.64.13-1.27,0-2.8,1.53-3.68,2.74-4,5.45-9.51,7.94-16,8.7-15.34,1.8-29.48-11.47-27.16-26.11Zm-82-74.55h58.1V108H208Z"/><path d="M88.13,217.8V181.47c15.1,0,30-.75,44.66.27,9.08.63,13.78,6.85,14.44,14.81.74,8.92-3.85,16.38-12.15,19.51a19.52,19.52,0,0,1-6.37,1.67C115.34,217.88,102,217.8,88.13,217.8Z"/><path d="M88.15,156V126.86c14.6,0,28.92-.73,43.12.26,9.06.64,13.13,6.45,13,14.33-.16,7.53-4.87,13.76-13.37,14.29C116.82,156.6,102.68,156,88.15,156Z"/><path d="M262.93,182.47H218.56c-1.24-10.09,7.93-20.52,18.91-21.65C251.13,159.41,262,168.52,262.93,182.47Z"/></svg>