<svg id="Capa_1" data-name="Capa 1" xmlns="http://www.w3.org/2000/svg" viewBox="0 0 38.3 23.06"><defs><style>.cls-1{fill:#1d1d1b;}</style></defs><path class="cls-1" d="M32,.24c-4.65,0-7.58,5.55-7.8,9.37L21,.88h-5L11.92,12.11,9.37,4.81A5.86,5.86,0,0,0,3.84.88H.2l8.26,21.9h6l1.71-4.54a5.72,5.72,0,0,0,1.17,0,8.64,8.64,0,0,0,3.19-.91l2.07,5.47H29c1.14-2.5,9.07-11.5,9.07-17.33C38.1,2.86,36.53.24,32,.24ZM17.21,17.48a4.7,4.7,0,0,1-.83.17L18.52,12l1.59,4.22A7.81,7.81,0,0,1,17.21,17.48Zm11.11,3.36-3.67-10A5.22,5.22,0,0,1,29.28,6.9c1.73,0,3,1.45,3,4.07C32.33,13.34,31.25,16.7,28.32,20.84Z"/></svg>